<svg width="20" height="20" viewBox="0 0 20 20" fill="none" xmlns="http://www.w3.org/2000/svg">
<path d="M8.10128 0.181274C3.97456 0.181274 0.621277 3.53456 0.621277 7.66127C0.621277 11.788 3.97456 15.1413 8.10128 15.1413C9.73409 15.1413 11.2432 14.6153 12.4738 13.725L15.3682 16.6125L18.0006 19.2375L19.2381 18L13.78 12.5288C14.9041 11.2191 15.5813 9.51924 15.5813 7.66127C15.5813 3.53456 12.228 0.181274 8.10128 0.181274ZM8.1413 1.86127C11.7919 1.86127 14.1413 4.01065 14.1413 7.66127C14.1413 11.3119 11.7919 13.725 8.1413 13.725C4.49067 13.725 2.1413 11.3119 2.1413 7.66127C2.1413 4.01065 4.49067 1.86127 8.1413 1.86127Z" fill="#7A0015"/>
</svg>
